<svg width="1017" height="141" viewBox="0 0 1017 141" fill="none" xmlns="http://www.w3.org/2000/svg">
<g filter="url(#filter0_d_1_164)">
<g filter="url(#filter1_d_1_164)">
<path d="M944.699 23.9056C944.582 25.6943 944.122 29.383 945.023 30.8694C949.452 29.2598 953.236 24.5264 959.267 23.2363C969.042 21.1439 979.94 21.4291 988.785 26.2647C997.131 30.8296 1000.48 38.5309 1002.68 46.981C1004.35 53.5206 1004.01 64.6226 1003.96 71.5973L1003.85 96.5371C1003.85 98.9543 1003.74 106.959 1004.23 108.959C1001.94 109.991 983.105 109.512 979.493 109.348C978.517 97.2162 979.418 84.2154 979.048 72.0007C979.298 66.0581 978.834 61.0355 978.582 55.0632C977.956 40.4236 958.258 38.7782 949.18 47.1406C947.718 48.4856 945.454 51.6622 945.166 53.7049C944.18 60.6585 944.394 68.7519 944.42 75.7722L944.54 109.447C937.893 109.935 926.01 109.598 919 109.54L919.065 23.8621C924.904 23.4731 938.889 23.541 944.699 23.9056Z" fill="black"/>
</g>
<g filter="url(#filter2_d_1_164)">
<path d="M822.602 44.8121C827.79 34.6889 834.45 28.2743 845.882 24.5324C858.356 20.4495 873.112 21.3663 884.966 26.8295C892.738 30.4111 900.86 39.0673 903.21 46.9789C906.612 56.1599 905.707 67.3338 905.736 77.1482L905.94 98.1329C905.97 100.757 905.902 107.085 906.245 109.354C903.924 109.975 883.834 109.885 880.459 109.682C880.417 107.373 880.624 92.4064 879.833 91.2827C877.084 90.5529 848.006 90.4233 844.394 90.6912C844.404 96.3115 844.65 104.316 844.362 109.814C837.008 110 826.26 110.157 819 109.784C819.525 105.286 819.551 97.9816 819.59 93.3541L819.713 69.8421C819.762 59.7091 819.71 54.6629 822.602 44.8121ZM844.358 72.0799C850.772 72.4114 858.32 72.1107 864.844 72.1253C867.438 72.1506 877.978 72.6217 879.538 71.6795C880.631 69.0209 880.024 61.4332 879.788 58.3733C878.948 47.5614 870.946 41.3588 859.786 42.3903C842.588 45.0905 844.459 59.593 844.358 72.0799Z" fill="black"/>
</g>
<g filter="url(#filter3_d_1_164)">
<path d="M691.234 31.4802C694.24 30.3247 696.821 27.6463 699.836 26.1139C712.011 19.932 730.071 20.8131 739.999 30.5753C740.761 31.3243 742.895 33.8013 743.968 33.1892C746.902 31.5052 748.883 28.8957 751.853 27.1437C761.584 21.404 775.383 21.315 786.096 24.4389C798.187 27.964 804.418 39.2056 806.351 50.3935C806.957 53.8933 806.643 59.1444 806.62 62.8242L806.51 82.0885L806.588 98.9482C806.617 101.856 806.795 106.292 806.503 109.031C805.8 109.898 805.657 109.753 804.208 109.997C800.476 109.253 787.649 110.324 783.071 109.719C782.056 109.583 781.654 109.176 781.55 108.188C781.197 104.878 781.356 100.936 781.365 97.6177C781.398 88.5744 781.359 79.5324 781.255 70.491C781.226 63.4784 782.351 53.3521 777.909 47.5623C769.242 39.1586 752.281 41.0797 749.169 53.5368C747.813 58.9546 748.3 66.6253 748.303 72.3506L748.352 97.0805C748.374 101.05 748.579 105.879 748.459 109.781C742.486 110.037 729.591 110.052 723.577 109.762L723.47 72.1765C723.304 57.5249 725.619 37.8883 702.177 43.4068C689.766 46.3284 691.73 60.7275 691.747 69.9813L691.824 96.5711C691.805 100.452 691.902 105.953 691.578 109.713C686.157 110.08 672.208 110.022 666.67 109.79L666.576 63.7883C666.495 51.0798 666.161 36.772 666.534 24.1289C674.115 23.9332 683.43 23.8853 690.994 24.128C691.043 26.4177 691.02 29.2411 691.234 31.4802Z" fill="black"/>
</g>
<g filter="url(#filter4_d_1_164)">
<path d="M570.038 109.716C569.536 93.447 570.003 76.2255 570.103 59.9258C570.136 55.2019 569.166 27.8007 570.184 24.6717C570.34 24.6124 570.496 24.5482 570.654 24.4942C573.715 23.4566 614.232 24.0157 619.316 24.6871C624.792 25.4104 630.291 26.8258 635.252 29.1837C641.775 32.2863 647.709 37.709 650.037 44.4339C654.242 55.7875 652.673 64.7876 645.696 74.6952C645.336 74.8326 643.011 77.2365 642.297 77.8203C639.665 79.9775 637.029 81.6137 634.192 83.4832C637.158 86.7157 639.013 89.733 641.594 93.1538C645.676 98.5623 649.716 104.344 653.931 109.639C650.433 110.012 645.864 109.895 642.297 109.901C637.152 109.913 631.812 109.975 626.679 109.775C620.908 104.258 615.616 93.7341 610.033 87.9632C608.7 86.5873 598.13 87.1324 595.643 87.4174L595.591 109.741C591.136 110.025 574.409 110.062 570.038 109.716ZM622.276 64.9191C627.503 59.877 627.869 51.7926 622.558 46.8369C617.422 42.0467 603.688 42.8441 596.798 43.1488C595.254 44.4021 595.818 64.8642 596.535 67.6851C596.905 69.1391 611.304 68.2818 613.116 68.1692C615.782 67.9509 619.65 66.7516 622.276 64.9191Z" fill="black"/>
</g>
<g filter="url(#filter5_d_1_164)">
<path d="M491.366 65.7285C487.796 63.0125 484.456 60.3388 482.741 56.212C477.498 43.6155 484.907 31.4563 497.65 26.7306C513.8 20.7429 532.249 21.369 548.769 25.5881C551.664 26.3277 554.897 26.8939 557.604 27.9478L557.75 28.3186C555.192 33.7574 552.718 39.3996 550.143 44.8331C549.735 45.1816 548.684 45.2785 548.282 45.1708C536.457 41.9954 523.352 38.5488 511.478 43.4603C503.385 46.8091 505.535 55.6551 513.907 56.9332C516.747 57.5811 520.145 57.3107 523.053 57.3947C529.402 57.5774 537.268 56.9288 543.493 57.4975C543.487 60.0236 543.578 73.8407 543.12 75.4926C535.212 76.8753 519.983 74.6888 511.349 76.3709C507.263 77.1668 505.48 78.4818 503.324 81.5714C503.139 83.1035 503.213 84.3044 503.256 85.8352C503.917 86.8274 505.156 88.5275 506.089 89.2304C514.147 95.299 531.344 93.0701 540.361 90.2096C543.471 89.2221 549.291 86.6536 551.959 86.4662C552.951 87.1855 558.619 100.34 560.347 103.035L560.632 103.474C543.779 112.337 517.772 113.933 499.465 108.737C484.713 104.548 473.74 95.0057 478.192 79.2027C480.04 72.6377 485.28 68.7196 491.366 65.7285Z" fill="black"/>
</g>
<g filter="url(#filter6_d_1_164)">
<path d="M425.102 22.511C426.655 22.4239 428.208 22.3702 429.764 22.3492C438.486 22.3094 447.555 24.349 453.871 30.4302C467.599 43.6458 463.848 62.0608 464.159 78.8643C464.351 89.0091 464.49 99.3986 464.39 109.623C457.483 110.068 446.018 109.882 438.924 109.679C438.704 106.07 438.807 101.05 438.778 97.321L438.645 72.4772C438.616 65.6229 439.433 55.0945 435.753 49.1371C431.019 41.4764 419.541 40.6836 412.006 45.2483C411.069 45.853 410.197 46.5433 409.399 47.3095C402.645 53.6874 404.16 66.4376 404.117 74.9561L403.981 109.765C400.23 110.083 382.361 110.092 378.791 109.728L378.519 24.2258C382.16 23.9054 400.486 23.9906 403.816 24.349C403.839 26.2624 403.754 29.5201 404.205 31.2452C405.414 31.8892 408.715 28.2387 410.271 27.3203C415.002 24.5225 419.729 23.4016 425.102 22.511Z" fill="black"/>
</g>
<g filter="url(#filter7_d_1_164)">
<path d="M275.25 24.359C277.86 23.582 297.239 23.5434 299.908 24.4871C301.403 26.4088 299.256 29.5802 301.396 31.5525L302.259 31.6513C303.844 30.2797 306.162 28.0629 307.903 27.0417C314.524 23.1594 321.619 22.0829 329.112 22.3709C341.297 22.8389 349.766 26.9666 355.657 37.2608C355.926 37.7356 357.178 39.9466 357.502 40.3112C361.442 51.1903 360.997 59.4232 361.027 70.7416L361.017 97.7072C361.049 101.723 361.001 105.737 360.871 109.75C356.808 110.105 340.454 109.997 336.199 109.682C335.84 106.632 335.947 100.01 335.904 96.7533L335.684 69.559C335.648 64.4329 336.06 57.8775 334.604 53.0518C332.114 44.7865 322.53 40.2262 313.98 43.0012C310.672 44.0746 306.308 45.9626 304.574 49.0707C299.755 53.4303 300.796 69.1123 300.767 75.3719L300.816 109.645C294.895 110.043 281.799 109.994 275.843 109.673C275.516 101.983 275.73 92.3511 275.72 84.547C275.743 71.2306 275.684 57.9139 275.545 44.5981C275.529 40.9755 275.918 27.0102 275.25 24.359Z" fill="black"/>
</g>
<g filter="url(#filter8_d_1_164)">
<path d="M174.98 44.9328C180.168 34.8096 186.828 28.395 198.26 24.6531C210.734 20.5702 225.49 21.487 237.344 26.9502C245.116 30.5318 253.238 39.188 255.588 47.0996C258.99 56.2805 258.085 67.4545 258.114 77.2689L258.318 98.2536C258.348 100.878 258.28 107.206 258.623 109.475C256.302 110.096 236.212 110.006 232.837 109.802C232.795 107.493 233.002 92.5271 232.211 91.4034C229.461 90.6736 200.384 90.544 196.772 90.8119C196.782 96.4322 197.028 104.437 196.74 109.935C189.386 110.12 178.638 110.278 171.378 109.904C171.903 105.406 171.929 98.1023 171.968 93.4748L172.091 69.9628C172.14 59.8298 172.088 54.7836 174.98 44.9328ZM196.736 72.2006C203.15 72.5321 210.698 72.2314 217.222 72.246C219.815 72.2713 230.356 72.7424 231.916 71.8002C233.009 69.1416 232.402 61.5539 232.166 58.494C231.326 47.6821 223.324 41.4795 212.164 42.511C194.966 45.2112 196.837 59.7137 196.736 72.2006Z" fill="black"/>
</g>
<g filter="url(#filter9_d_1_164)">
<path d="M12 17.6106C12.548 17.3772 13.0732 17.1688 13.6503 17.0117C19.3699 15.4555 50.6456 6.95435 54.4003 8.10706C58.6931 9.42463 59.7307 16.8117 64.1695 16.5326C67.2076 16.3415 70.3008 15.4561 73.261 14.8023L89.1615 11.2102C100.046 8.73745 109.932 6.1227 120.522 11.7029C126.004 14.5921 129.448 19.089 131.101 24.8072C132.515 28.2868 132.652 32.3993 132.427 36.333C132.254 39.3674 131.245 42.2702 130.325 45.1804C130.272 45.3492 130.22 45.5203 130.171 45.6938C141.062 47.0055 148.85 51.2801 153.973 61.0059C154.501 62.0237 155.15 64.339 155.312 65.2652C155.902 68.6387 156.055 71.2945 155.967 73.5302C155.724 79.7352 153.421 85.7383 150.033 91.0441C148.289 93.7749 146.38 96.373 144.852 98.0258C136.925 106.599 126.666 112.486 114.565 113.48C107.374 114.072 109.384 105.231 102.822 104.799C96.713 105.401 89.2621 107.506 83.2378 108.969L34.0707 120.669C31.7881 121.197 14.2826 125.612 13.0959 124.618C12.4085 120.308 12.5998 114.897 12.5998 110.457L12.6387 88.4188C12.2756 64.8169 12.0648 41.2141 12 17.6106ZM129.873 85.2043C133.16 80.6542 135.119 74.8339 130.382 70.4589C125.596 64.6098 98.2207 76.2746 90.9384 75.3241C86.1883 74.7039 86.0943 69.6325 82.4531 66.4809C75.6377 66.5525 58.6964 71.811 51.2584 73.2767C48.7391 73.7731 37.125 76.378 35.131 77.1418L35.0985 98.4672C40.0885 97.6121 46.4176 95.8216 51.4562 94.6146L79.8754 88.0265C85.1961 86.8061 90.345 85.4753 95.776 84.7427C102.588 83.8243 102.945 89.7154 107.192 93.0371C108.833 93.0433 110.253 92.9136 111.861 92.6327C119.202 91.3639 124.993 91.2064 129.873 85.2043ZM35.1666 54.6932L35.6141 54.6466C39.1288 54.2582 45.4643 52.5341 49.0634 51.6734C55.1136 50.2426 61.1865 48.8861 67.2757 47.6037C69.568 47.1135 76.9184 45.1007 78.6044 46.7202C81.3896 49.3964 82.1581 54.9735 87.4917 54.7395C91.428 54.4876 98.8659 52.2399 102.702 50.8313C103.405 50.5732 105.399 48.6249 105.824 48.4153C110.341 43.0549 112.28 36.5362 105.811 31.6633C95.6398 28.386 80.6796 37.1187 69.3994 37.2824C63.6086 37.366 63.414 28.6642 59.5751 28.5503C55.4346 28.4271 38.6586 32.3761 35.0985 33.5757C35.0985 40.2485 34.9007 48.1153 35.1666 54.6932Z" fill="black"/>
</g>
</g>
<defs>
<filter id="filter0_d_1_164" x="8" y="8" width="1000.23" height="128" filterUnits="userSpaceOnUse" color-interpolation-filters="sRGB">
<feFlood flood-opacity="0" result="BackgroundImageFix"/>
<feColorMatrix in="SourceAlpha" type="matrix" values="0 0 0 0 0 0 0 0 0 0 0 0 0 0 0 0 0 0 127 0" result="hardAlpha"/>
<feOffset dy="4"/>
<feGaussianBlur stdDeviation="2"/>
<feComposite in2="hardAlpha" operator="out"/>
<feColorMatrix type="matrix" values="0 0 0 0 0 0 0 0 0 1 0 0 0 0 0.776471 0 0 0 1 0"/>
<feBlend mode="normal" in2="BackgroundImageFix" result="effect1_dropShadow_1_164"/>
<feBlend mode="normal" in="SourceGraphic" in2="effect1_dropShadow_1_164" result="shape"/>
</filter>
<filter id="filter1_d_1_164" x="907" y="14" width="109.235" height="111.707" filterUnits="userSpaceOnUse" color-interpolation-filters="sRGB">
<feFlood flood-opacity="0" result="BackgroundImageFix"/>
<feColorMatrix in="SourceAlpha" type="matrix" values="0 0 0 0 0 0 0 0 0 0 0 0 0 0 0 0 0 0 127 0" result="hardAlpha"/>
<feOffset dy="4"/>
<feGaussianBlur stdDeviation="6"/>
<feComposite in2="hardAlpha" operator="out"/>
<feColorMatrix type="matrix" values="0 0 0 0 0 0 0 0 0 0.437688 0 0 0 0 0.339852 0 0 0 1 0"/>
<feBlend mode="normal" in2="BackgroundImageFix" result="effect1_dropShadow_1_164"/>
<feBlend mode="normal" in="SourceGraphic" in2="effect1_dropShadow_1_164" result="shape"/>
</filter>
<filter id="filter2_d_1_164" x="807" y="14" width="111.245" height="112.011" filterUnits="userSpaceOnUse" color-interpolation-filters="sRGB">
<feFlood flood-opacity="0" result="BackgroundImageFix"/>
<feColorMatrix in="SourceAlpha" type="matrix" values="0 0 0 0 0 0 0 0 0 0 0 0 0 0 0 0 0 0 127 0" result="hardAlpha"/>
<feOffset dy="4"/>
<feGaussianBlur stdDeviation="6"/>
<feComposite in2="hardAlpha" operator="out"/>
<feColorMatrix type="matrix" values="0 0 0 0 0 0 0 0 0 0.437688 0 0 0 0 0.339852 0 0 0 1 0"/>
<feBlend mode="normal" in2="BackgroundImageFix" result="effect1_dropShadow_1_164"/>
<feBlend mode="normal" in="SourceGraphic" in2="effect1_dropShadow_1_164" result="shape"/>
</filter>
<filter id="filter3_d_1_164" x="654.361" y="14.1967" width="164.36" height="111.8" filterUnits="userSpaceOnUse" color-interpolation-filters="sRGB">
<feFlood flood-opacity="0" result="BackgroundImageFix"/>
<feColorMatrix in="SourceAlpha" type="matrix" values="0 0 0 0 0 0 0 0 0 0 0 0 0 0 0 0 0 0 127 0" result="hardAlpha"/>
<feOffset dy="4"/>
<feGaussianBlur stdDeviation="6"/>
<feComposite in2="hardAlpha" operator="out"/>
<feColorMatrix type="matrix" values="0 0 0 0 0 0 0 0 0 0.437688 0 0 0 0 0.339852 0 0 0 1 0"/>
<feBlend mode="normal" in2="BackgroundImageFix" result="effect1_dropShadow_1_164"/>
<feBlend mode="normal" in="SourceGraphic" in2="effect1_dropShadow_1_164" result="shape"/>
</filter>
<filter id="filter4_d_1_164" x="557.718" y="15.9205" width="108.214" height="110.044" filterUnits="userSpaceOnUse" color-interpolation-filters="sRGB">
<feFlood flood-opacity="0" result="BackgroundImageFix"/>
<feColorMatrix in="SourceAlpha" type="matrix" values="0 0 0 0 0 0 0 0 0 0 0 0 0 0 0 0 0 0 127 0" result="hardAlpha"/>
<feOffset dy="4"/>
<feGaussianBlur stdDeviation="6"/>
<feComposite in2="hardAlpha" operator="out"/>
<feColorMatrix type="matrix" values="0 0 0 0 0 0 0 0 0 0.437688 0 0 0 0 0.339852 0 0 0 1 0"/>
<feBlend mode="normal" in2="BackgroundImageFix" result="effect1_dropShadow_1_164"/>
<feBlend mode="normal" in="SourceGraphic" in2="effect1_dropShadow_1_164" result="shape"/>
</filter>
<filter id="filter5_d_1_164" x="465.19" y="14.3293" width="107.442" height="113.363" filterUnits="userSpaceOnUse" color-interpolation-filters="sRGB">
<feFlood flood-opacity="0" result="BackgroundImageFix"/>
<feColorMatrix in="SourceAlpha" type="matrix" values="0 0 0 0 0 0 0 0 0 0 0 0 0 0 0 0 0 0 127 0" result="hardAlpha"/>
<feOffset dy="4"/>
<feGaussianBlur stdDeviation="6"/>
<feComposite in2="hardAlpha" operator="out"/>
<feColorMatrix type="matrix" values="0 0 0 0 0 0 0 0 0 0.437688 0 0 0 0 0.339852 0 0 0 1 0"/>
<feBlend mode="normal" in2="BackgroundImageFix" result="effect1_dropShadow_1_164"/>
<feBlend mode="normal" in="SourceGraphic" in2="effect1_dropShadow_1_164" result="shape"/>
</filter>
<filter id="filter6_d_1_164" x="366.519" y="14.3486" width="109.904" height="111.654" filterUnits="userSpaceOnUse" color-interpolation-filters="sRGB">
<feFlood flood-opacity="0" result="BackgroundImageFix"/>
<feColorMatrix in="SourceAlpha" type="matrix" values="0 0 0 0 0 0 0 0 0 0 0 0 0 0 0 0 0 0 127 0" result="hardAlpha"/>
<feOffset dy="4"/>
<feGaussianBlur stdDeviation="6"/>
<feComposite in2="hardAlpha" operator="out"/>
<feColorMatrix type="matrix" values="0 0 0 0 0 0 0 0 0 0.437688 0 0 0 0 0.339852 0 0 0 1 0"/>
<feBlend mode="normal" in2="BackgroundImageFix" result="effect1_dropShadow_1_164"/>
<feBlend mode="normal" in="SourceGraphic" in2="effect1_dropShadow_1_164" result="shape"/>
</filter>
<filter id="filter7_d_1_164" x="263.25" y="14.3269" width="109.779" height="111.644" filterUnits="userSpaceOnUse" color-interpolation-filters="sRGB">
<feFlood flood-opacity="0" result="BackgroundImageFix"/>
<feColorMatrix in="SourceAlpha" type="matrix" values="0 0 0 0 0 0 0 0 0 0 0 0 0 0 0 0 0 0 127 0" result="hardAlpha"/>
<feOffset dy="4"/>
<feGaussianBlur stdDeviation="6"/>
<feComposite in2="hardAlpha" operator="out"/>
<feColorMatrix type="matrix" values="0 0 0 0 0 0 0 0 0 0.437688 0 0 0 0 0.339852 0 0 0 1 0"/>
<feBlend mode="normal" in2="BackgroundImageFix" result="effect1_dropShadow_1_164"/>
<feBlend mode="normal" in="SourceGraphic" in2="effect1_dropShadow_1_164" result="shape"/>
</filter>
<filter id="filter8_d_1_164" x="159.378" y="14.1207" width="111.245" height="112.011" filterUnits="userSpaceOnUse" color-interpolation-filters="sRGB">
<feFlood flood-opacity="0" result="BackgroundImageFix"/>
<feColorMatrix in="SourceAlpha" type="matrix" values="0 0 0 0 0 0 0 0 0 0 0 0 0 0 0 0 0 0 127 0" result="hardAlpha"/>
<feOffset dy="4"/>
<feGaussianBlur stdDeviation="6"/>
<feComposite in2="hardAlpha" operator="out"/>
<feColorMatrix type="matrix" values="0 0 0 0 0 0 0 0 0 0.437688 0 0 0 0 0.339852 0 0 0 1 0"/>
<feBlend mode="normal" in2="BackgroundImageFix" result="effect1_dropShadow_1_164"/>
<feBlend mode="normal" in="SourceGraphic" in2="effect1_dropShadow_1_164" result="shape"/>
</filter>
<filter id="filter9_d_1_164" x="0" y="0" width="167.99" height="140.763" filterUnits="userSpaceOnUse" color-interpolation-filters="sRGB">
<feFlood flood-opacity="0" result="BackgroundImageFix"/>
<feColorMatrix in="SourceAlpha" type="matrix" values="0 0 0 0 0 0 0 0 0 0 0 0 0 0 0 0 0 0 127 0" result="hardAlpha"/>
<feOffset dy="4"/>
<feGaussianBlur stdDeviation="6"/>
<feComposite in2="hardAlpha" operator="out"/>
<feColorMatrix type="matrix" values="0 0 0 0 0 0 0 0 0 0.437688 0 0 0 0 0.339852 0 0 0 1 0"/>
<feBlend mode="normal" in2="BackgroundImageFix" result="effect1_dropShadow_1_164"/>
<feBlend mode="normal" in="SourceGraphic" in2="effect1_dropShadow_1_164" result="shape"/>
</filter>
</defs>
</svg>
