<svg width="48" height="64" viewBox="0 0 48 64" fill="none" xmlns="http://www.w3.org/2000/svg">
<g clip-path="url(#clip0_1_885)">
<g clip-path="url(#clip1_1_885)">
<g clip-path="url(#clip2_1_885)">
<path d="M33.7972 44.3906L37.6154 61.957L24.2517 54.3205L10.8878 61.957L14.7061 44.3906" fill="#202020"/>
<path d="M24.2517 46.6842C35.8497 46.6842 45.2519 37.282 45.2519 25.6839C45.2519 14.0858 35.8497 4.68359 24.2517 4.68359C12.6535 4.68359 3.25134 14.0858 3.25134 25.6839C3.25134 37.282 12.6535 46.6842 24.2517 46.6842Z" fill="#202020"/>
<path d="M33.7972 44.3905L37.6154 61.9569L24.2517 54.3204L10.8878 61.9569L14.7061 44.3905M45.2519 25.6839C45.2519 37.282 35.8497 46.6842 24.2517 46.6842C12.6535 46.6842 3.25134 37.282 3.25134 25.6839C3.25134 14.0858 12.6535 4.68359 24.2517 4.68359C35.8497 4.68359 45.2519 14.0858 45.2519 25.6839Z" stroke="#202020" stroke-width="3.2" stroke-linecap="round" stroke-linejoin="round"/>
<path d="M32.1461 41.9141L35.9643 59.4805L22.6005 51.844L9.23669 59.4805L13.0549 41.9141" fill="#F7E5FD"/>
<path d="M32.1461 41.9141L35.9643 59.4805L22.6005 51.844L9.23669 59.4805L13.0549 41.9141" stroke="#202020" stroke-width="3.2" stroke-linecap="round" stroke-linejoin="round"/>
<path d="M22.6005 44.2076C34.1987 44.2076 43.6008 34.8054 43.6008 23.2073C43.6008 11.6092 34.1987 2.20703 22.6005 2.20703C11.0023 2.20703 1.60022 11.6092 1.60022 23.2073C1.60022 34.8054 11.0023 44.2076 22.6005 44.2076Z" fill="#E09CF7" stroke="#202020" stroke-width="3.2" stroke-linecap="round" stroke-linejoin="round"/>
<path d="M19.2982 15.1582H21.2073C21.7137 15.1582 22.1993 15.3593 22.5573 15.7173C22.9153 16.0753 23.1165 16.5609 23.1165 17.0673V30.4311M19.2982 30.4311H26.9347" stroke="#202020" stroke-width="3.2" stroke-linecap="round" stroke-linejoin="round"/>
</g>
</g>
</g>
<defs>
<clipPath id="clip0_1_885">
<rect width="47.2" height="64" fill="white"/>
</clipPath>
<clipPath id="clip1_1_885">
<rect width="47.2" height="64" fill="white"/>
</clipPath>
<clipPath id="clip2_1_885">
<rect width="47.2" height="64" fill="white"/>
</clipPath>
</defs>
</svg>
