<svg width="95" height="95" viewBox="0 0 95 95" fill="none" xmlns="http://www.w3.org/2000/svg">
<g filter="url(#filter0_d_161_410)">
<circle cx="39.5" cy="47.5" r="37.5" fill="#ECF4FF"/>
</g>
<path d="M57.3841 56.7574L53.4166 52.6941C52.5632 51.8829 51.4867 51.3454 50.3254 51.1507C49.1642 50.956 47.9713 51.1131 46.8999 51.6016L45.1749 49.8766C47.2077 47.1605 48.136 43.7752 47.7731 40.4022C47.4101 37.0292 45.7829 33.9189 43.2188 31.6974C40.6548 29.476 37.3445 28.3083 33.9541 28.4295C30.5638 28.5507 27.3452 29.9517 24.9464 32.3506C22.5475 34.7494 21.1465 37.968 21.0253 41.3583C20.9041 44.7486 22.0718 48.059 24.2932 50.623C26.5147 53.187 29.625 54.8143 32.998 55.1772C36.3711 55.5402 39.7564 54.6118 42.4724 52.5791L44.1783 54.2849C43.6322 55.3576 43.4365 56.5745 43.6187 57.7643C43.801 58.9541 44.352 60.0566 45.1941 60.9166L49.2574 64.9799C50.3356 66.0567 51.797 66.6616 53.3208 66.6616C54.8445 66.6616 56.306 66.0567 57.3841 64.9799C57.9318 64.4444 58.3669 63.8049 58.664 63.0989C58.9611 62.3929 59.1141 61.6347 59.1141 60.8687C59.1141 60.1027 58.9611 59.3445 58.664 58.6385C58.3669 57.9325 57.9318 57.293 57.3841 56.7574V56.7574ZM41.1308 48.6308C39.7896 49.9686 38.0819 50.8789 36.2236 51.2467C34.3653 51.6146 32.4396 51.4234 30.6899 50.6973C28.9402 49.9713 27.4449 48.7429 26.393 47.1675C25.341 45.592 24.7796 43.7402 24.7796 41.8458C24.7796 39.9514 25.341 38.0995 26.393 36.5241C27.4449 34.9486 28.9402 33.7203 30.6899 32.9943C32.4396 32.2682 34.3653 32.077 36.2236 32.4448C38.0819 32.8126 39.7896 33.723 41.1308 35.0608C42.0232 35.951 42.7313 37.0085 43.2144 38.1728C43.6976 39.3371 43.9462 40.5852 43.9462 41.8458C43.9462 43.1063 43.6976 44.3545 43.2144 45.5188C42.7313 46.683 42.0232 47.7406 41.1308 48.6308V48.6308ZM54.6816 62.1816C54.5034 62.3613 54.2914 62.5038 54.0579 62.6012C53.8243 62.6985 53.5738 62.7486 53.3208 62.7486C53.0678 62.7486 52.8172 62.6985 52.5837 62.6012C52.3501 62.5038 52.1381 62.3613 51.9599 62.1816L47.8966 58.1183C47.717 57.9401 47.5744 57.7281 47.4771 57.4946C47.3798 57.261 47.3297 57.0105 47.3297 56.7574C47.3297 56.5044 47.3798 56.2539 47.4771 56.0203C47.5744 55.7868 47.717 55.5748 47.8966 55.3966C48.0748 55.217 48.2868 55.0744 48.5203 54.9771C48.7539 54.8798 49.0044 54.8297 49.2574 54.8297C49.5105 54.8297 49.761 54.8798 49.9945 54.9771C50.2281 55.0744 50.4401 55.217 50.6183 55.3966L54.6816 59.4599C54.8613 59.6381 55.0038 59.8501 55.1011 60.0837C55.1985 60.3172 55.2486 60.5678 55.2486 60.8208C55.2486 61.0738 55.1985 61.3243 55.1011 61.5579C55.0038 61.7914 54.8613 62.0034 54.6816 62.1816V62.1816Z" fill="#105CC3"/>
<defs>
<filter id="filter0_d_161_410" x="0" y="0" width="95" height="95" filterUnits="userSpaceOnUse" color-interpolation-filters="sRGB">
<feFlood flood-opacity="0" result="BackgroundImageFix"/>
<feColorMatrix in="SourceAlpha" type="matrix" values="0 0 0 0 0 0 0 0 0 0 0 0 0 0 0 0 0 0 127 0" result="hardAlpha"/>
<feOffset dx="8"/>
<feGaussianBlur stdDeviation="5"/>
<feComposite in2="hardAlpha" operator="out"/>
<feColorMatrix type="matrix" values="0 0 0 0 0.43568 0 0 0 0 0.673289 0 0 0 0 1 0 0 0 1 0"/>
<feBlend mode="normal" in2="BackgroundImageFix" result="effect1_dropShadow_161_410"/>
<feBlend mode="normal" in="SourceGraphic" in2="effect1_dropShadow_161_410" result="shape"/>
</filter>
</defs>
</svg>
